<?xml version="1.0"?>
<svg xmlns="http://www.w3.org/2000/svg" width="512px" height="512px" viewBox="0 0 128 128" class=""><g transform="matrix(0.886385 0 0 0.886385 7.27136 7.27136)"><g><path d="M64,76.744a30.9,30.9,0,1,0-30.9-30.9A30.931,30.931,0,0,0,64,76.744Zm0-58.291a27.4,27.4,0,1,1-27.4,27.4A27.426,27.426,0,0,1,64,18.453Z" data-original="#000000" class="active-path" data-old_color="#000000" fill="#F50000"/><path d="M53.588,50.526,49.725,62.115a1.75,1.75,0,0,0,2.631,2.009L64,56.361l11.644,7.763a1.75,1.75,0,0,0,2.631-2.009L74.412,50.526l7.645-7.645a1.749,1.749,0,0,0-1.237-2.987H69.466L65.66,28.475a1.75,1.75,0,0,0-3.32,0L58.534,39.894H47.18a1.749,1.749,0,0,0-1.237,2.987ZM59.8,43.394a1.75,1.75,0,0,0,1.66-1.2L64,34.563,66.545,42.2a1.75,1.75,0,0,0,1.66,1.2H76.6l-5.423,5.422a1.749,1.749,0,0,0-.422,1.79l2.592,7.777L64.971,52.8a1.75,1.75,0,0,0-1.942,0l-8.371,5.581,2.592-7.777a1.749,1.749,0,0,0-.422-1.79l-5.423-5.422Z" data-original="#000000" class="active-path" data-old_color="#000000" fill="#F50000"/><path d="M106.566,109.538,90.339,76.568a5.566,5.566,0,0,0,4.487-5.452v-3.3a2.05,2.05,0,0,1,1.27-1.9l3.052-1.266a5.557,5.557,0,0,0,3.005-7.263L100.9,54.346a2.052,2.052,0,0,1,.445-2.243l2.325-2.324a5.567,5.567,0,0,0,0-7.861h0l-2.336-2.335a2.053,2.053,0,0,1-.447-2.243l1.264-3.053a5.558,5.558,0,0,0-3.012-7.261L96.1,25.769a2.053,2.053,0,0,1-1.271-1.9V20.581a5.565,5.565,0,0,0-5.558-5.559H85.963a2.051,2.051,0,0,1-1.9-1.27L82.8,10.7A5.557,5.557,0,0,0,75.533,7.7L72.5,8.954a2.058,2.058,0,0,1-2.245-.446L67.93,6.185a5.564,5.564,0,0,0-7.86,0L57.733,8.521a2.051,2.051,0,0,1-2.242.446L52.437,7.7a5.56,5.56,0,0,0-7.261,3.011L43.92,13.751a2.051,2.051,0,0,1-1.9,1.271H38.732a5.565,5.565,0,0,0-5.558,5.559v3.3a2.051,2.051,0,0,1-1.27,1.9l-3.052,1.266a5.557,5.557,0,0,0-3,7.263l1.258,3.036a2.053,2.053,0,0,1-.445,2.243l-2.325,2.324a5.566,5.566,0,0,0,0,7.861l2.336,2.336a2.053,2.053,0,0,1,.447,2.243l-1.264,3.053a5.558,5.558,0,0,0,3.012,7.261L31.9,65.928a2.053,2.053,0,0,1,1.271,1.9v3.286a5.566,5.566,0,0,0,4.487,5.452l-16.227,32.97a1.75,1.75,0,0,0,2.134,2.429l15.6-5.308,5.308,15.6a1.751,1.751,0,0,0,1.544,1.183l.113,0a1.751,1.751,0,0,0,1.57-.977L64,89.354l16.3,33.112a1.751,1.751,0,0,0,1.57.977l.113,0a1.752,1.752,0,0,0,1.544-1.183l5.308-15.6,15.6,5.308a1.75,1.75,0,0,0,2.134-2.429ZM36.674,71.116V67.83a5.541,5.541,0,0,0-3.433-5.136l-3.036-1.256a2.057,2.057,0,0,1-1.115-2.689L30.353,55.7a5.543,5.543,0,0,0-1.206-6.056L26.811,47.3a2.06,2.06,0,0,1,0-2.911l2.323-2.324a5.54,5.54,0,0,0,1.2-6.059L29.08,32.975a2.057,2.057,0,0,1,1.113-2.69l3.052-1.265a5.545,5.545,0,0,0,3.429-5.135v-3.3a2.062,2.062,0,0,1,2.058-2.059h3.287a5.542,5.542,0,0,0,5.136-3.433l1.256-3.036A2.059,2.059,0,0,1,51.1,10.938L54.153,12.2A5.545,5.545,0,0,0,60.208,11l2.336-2.337a2.11,2.11,0,0,1,2.912,0l2.323,2.323a5.54,5.54,0,0,0,6.059,1.205l3.036-1.259a2.056,2.056,0,0,1,2.689,1.114l1.266,3.051a5.542,5.542,0,0,0,5.134,3.429h3.305a2.062,2.062,0,0,1,2.058,2.059v3.286A5.541,5.541,0,0,0,94.759,29L97.8,30.259a2.057,2.057,0,0,1,1.115,2.689L97.647,36a5.545,5.545,0,0,0,1.206,6.057l2.336,2.336a2.06,2.06,0,0,1,0,2.911l-2.323,2.323a5.54,5.54,0,0,0-1.2,6.059l1.258,3.036a2.058,2.058,0,0,1-1.113,2.69l-3.052,1.265a5.545,5.545,0,0,0-3.429,5.135v3.3a2.061,2.061,0,0,1-2.058,2.058H85.981a5.543,5.543,0,0,0-5.136,3.433l-1.256,3.037A2.057,2.057,0,0,1,76.9,80.758L73.847,79.5A5.543,5.543,0,0,0,67.792,80.7l-2.336,2.337a2.11,2.11,0,0,1-2.912,0l-2.323-2.324a5.541,5.541,0,0,0-6.059-1.2l-3.036,1.259a2.057,2.057,0,0,1-2.689-1.113L47.171,76.6a5.543,5.543,0,0,0-5.134-3.43h-3.3A2.061,2.061,0,0,1,36.674,71.116Zm9.753,46.014-4.51-13.255a1.749,1.749,0,0,0-2.221-1.093L26.44,107.293,41.511,76.674h.526a2.053,2.053,0,0,1,1.9,1.27L45.2,81a5.559,5.559,0,0,0,7.263,3L55.5,82.743a2.055,2.055,0,0,1,2.245.446l2.323,2.323a5.472,5.472,0,0,0,1.426,1ZM88.3,102.782a1.749,1.749,0,0,0-2.221,1.093l-4.51,13.255L66.5,86.515a5.472,5.472,0,0,0,1.426-1l2.337-2.336a2.05,2.05,0,0,1,2.242-.447l3.053,1.264a5.56,5.56,0,0,0,7.262-3.012l1.256-3.035a2.051,2.051,0,0,1,1.9-1.272h.508l15.071,30.619Z" data-original="#000000" class="active-path" data-old_color="#000000" fill="#F50000"/></g></g> </svg>
